<?xml version="1.0" encoding="utf-8"?>
<!-- Generator: Adobe Illustrator 19.0.0, SVG Export Plug-In . SVG Version: 6.00 Build 0)  -->
<svg version="1.1" id="Слой_1" xmlns="http://www.w3.org/2000/svg" xmlns:xlink="http://www.w3.org/1999/xlink" x="0px" y="0px"
	 viewBox="416 -616 1792 1792" style="enable-background:new 416 -616 1792 1792;" xml:space="preserve">
<style type="text/css">
	.st0{fill:#FFFFFF;}
</style>
<path class="st0" d="M1760,344V216c0-17.3-6.3-32.3-19-45s-27.7-19-45-19h-256v-256c0-17.3-6.3-32.3-19-45s-27.7-19-45-19h-128
	c-17.3,0-32.3,6.3-45,19s-19,27.7-19,45v256H928c-17.3,0-32.3,6.3-45,19s-19,27.7-19,45v128c0,17.3,6.3,32.3,19,45s27.7,19,45,19
	h256v256c0,17.3,6.3,32.3,19,45s27.7,19,45,19h128c17.3,0,32.3-6.3,45-19s19-27.7,19-45V408h256c17.3,0,32.3-6.3,45-19
	S1760,361.3,1760,344z M2080,280c0,139.3-34.3,267.8-103,385.5S1815.2,876.3,1697.5,945s-246.2,103-385.5,103s-267.8-34.3-385.5-103
	C808.8,876.3,715.7,783.2,647,665.5S544,419.3,544,280s34.3-267.8,103-385.5S808.8-316.3,926.5-385c117.7-68.7,246.2-103,385.5-103
	s267.8,34.3,385.5,103s210.8,161.8,279.5,279.5S2080,140.7,2080,280z"/>
</svg>
